<svg t="1629206210698" class="icon" viewBox="0 0 1024 1024" version="1.1" xmlns="http://www.w3.org/2000/svg" p-id="1186" width="200" height="200"><path d="M783.453091 140.101818l-315.578182 315.578182-315.578182-315.578182a41.053091 41.053091 0 0 0-28.113454-11.264 37.888 37.888 0 0 0-27.554909 11.915637 37.608727 37.608727 0 0 0-11.915637 27.554909c0 10.426182 3.723636 19.828364 11.264 28.206545l315.578182 315.578182L95.883636 827.578182a38.446545 38.446545 0 0 0-10.612363 38.818909c3.723636 15.080727 12.939636 24.389818 27.554909 28.206545 14.615273 3.723636 27.741091 0.186182 39.377454-10.705454l315.578182-315.578182 315.578182 315.578182c8.378182 7.447273 17.687273 11.264 28.113455 11.264 10.426182 0 19.642182-4.002909 27.554909-11.915637a37.608727 37.608727 0 0 0 11.915636-27.554909 41.239273 41.239273 0 0 0-11.170909-28.206545L524.194909 512l315.578182-315.485091a38.446545 38.446545 0 0 0 10.612364-38.818909 36.119273 36.119273 0 0 0-28.206546-28.206545 38.446545 38.446545 0 0 0-38.818909 10.705454z" fill="#727272" p-id="1187"></path></svg>